M48
; DRILL file {KiCad (5.1.0)-1} date 19.08.2020 15:18:01
; FORMAT={-:-/ absolute / inch / decimal}
; #@! TF.CreationDate,2020-08-19T15:18:01+08:00
; #@! TF.GenerationSoftware,Kicad,Pcbnew,(5.1.0)-1
FMAT,2
INCH
T1C0.0118
T2C0.0157
T3C0.0197
T4C0.0276
T5C0.0295
T6C0.0315
T7C0.0354
T8C0.0394
T9C0.0433
T10C0.0512
T11C0.0598
T12C0.0630
T13C0.1575
T14C0.1280
%
G90
G05
T1
X3.2354Y-2.6902
X3.2354Y-3.3594
X3.2354Y-4.0287
X3.2354Y-4.698
X3.2354Y-5.3673
X3.2354Y-6.0839
X3.2354Y-6.7531
X3.2354Y-7.4224
X3.2354Y-8.0917
X3.2354Y-8.761
X3.2354Y-9.4697
X3.2354Y-10.139
X3.2354Y-10.8083
X3.2354Y-11.4776
X3.2354Y-12.1469
X4.3941Y-2.8106
X4.3941Y-3.4799
X4.3941Y-4.1492
X4.3941Y-4.8185
X4.3941Y-5.4878
X4.3941Y-6.2043
X4.3941Y-6.8736
X4.3941Y-7.5429
X4.3941Y-8.2122
X4.3941Y-8.8815
X4.3941Y-9.5901
X4.3941Y-10.2594
X4.3941Y-10.9287
X4.3941Y-11.598
X4.3941Y-12.2673
X4.4224Y-2.787
X4.4224Y-3.4563
X4.4224Y-4.1256
X4.4224Y-4.7949
X4.4224Y-5.4642
X4.4224Y-6.1807
X4.4224Y-6.85
X4.4224Y-7.5193
X4.4224Y-8.1886
X4.4224Y-8.8579
X4.4224Y-9.5665
X4.4224Y-10.2358
X4.4224Y-10.9051
X4.4224Y-11.5744
X4.4224Y-12.2437
X4.4602Y-2.7697
X4.4602Y-3.439
X4.4602Y-4.1083
X4.4602Y-4.7776
X4.4602Y-5.4469
X4.4602Y-6.1634
X4.4602Y-6.8327
X4.4602Y-7.502
X4.4602Y-8.1713
X4.4602Y-8.8406
X4.4602Y-9.5492
X4.4602Y-10.2185
X4.4602Y-10.8878
X4.4602Y-11.5571
X4.4602Y-12.2264
X4.576Y-2.6539
X4.576Y-3.3232
X4.576Y-3.9925
X4.576Y-4.6618
X4.576Y-5.3311
X4.576Y-6.0476
X4.576Y-6.7169
X4.576Y-7.3862
X4.576Y-8.0555
X4.576Y-8.7248
X4.576Y-9.4335
X4.576Y-10.1028
X4.576Y-10.772
X4.576Y-11.4413
X4.576Y-12.1106
X7.1768Y-3.0
X7.1768Y-3.6693
X7.1768Y-4.3386
X7.1768Y-5.0079
X7.1768Y-5.6772
X7.1768Y-6.3858
X7.1768Y-7.0551
X7.1768Y-7.7244
X7.1768Y-8.3937
X7.1768Y-9.063
X7.2925Y-2.8843
X7.2925Y-3.5535
X7.2925Y-4.2228
X7.2925Y-4.8921
X7.2925Y-5.5614
X7.2925Y-6.2701
X7.2925Y-6.9394
X7.2925Y-7.6087
X7.2925Y-8.278
X7.2925Y-8.9472
X7.3303Y-2.8669
X7.3303Y-3.5362
X7.3303Y-4.2055
X7.3303Y-4.8748
X7.3303Y-5.5441
X7.3303Y-6.2528
X7.3303Y-6.922
X7.3303Y-7.5913
X7.3303Y-8.2606
X7.3303Y-8.9299
X7.3587Y-2.8433
X7.3587Y-3.5126
X7.3587Y-4.1819
X7.3587Y-4.8512
X7.3587Y-5.5205
X7.3587Y-6.2292
X7.3587Y-6.8985
X7.3587Y-7.5678
X7.3587Y-8.237
X7.3587Y-8.9063
X8.5173Y-2.9638
X8.5173Y-3.6331
X8.5173Y-4.3024
X8.5173Y-4.9717
X8.5173Y-5.6409
X8.5173Y-6.3496
X8.5173Y-7.0189
X8.5173Y-7.6882
X8.5173Y-8.3575
X8.5173Y-9.0268
T2
X2.4894Y-2.6543
X2.4894Y-3.3236
X2.4894Y-3.9929
X2.4894Y-4.6622
X2.4894Y-5.3315
X2.4894Y-6.048
X2.4894Y-6.7173
X2.4894Y-7.3866
X2.4894Y-8.0559
X2.4894Y-8.7252
X2.4894Y-9.4339
X2.4894Y-10.1031
X2.4894Y-10.7724
X2.4894Y-11.4417
X2.4894Y-12.111
X2.4902Y-2.8728
X2.4902Y-3.5421
X2.4902Y-4.2114
X2.4902Y-4.8807
X2.4902Y-5.55
X2.4902Y-6.2665
X2.4902Y-6.9358
X2.4902Y-7.6051
X2.4902Y-8.2744
X2.4902Y-8.9437
X2.4902Y-9.6524
X2.4902Y-10.3217
X2.4902Y-10.9909
X2.4902Y-11.6602
X2.4902Y-12.3295
X2.5656Y-2.6543
X2.5656Y-3.3236
X2.5656Y-3.9929
X2.5656Y-4.6622
X2.5656Y-5.3315
X2.5656Y-6.048
X2.5656Y-6.7173
X2.5656Y-7.3866
X2.5656Y-8.0559
X2.5656Y-8.7252
X2.5656Y-9.4339
X2.5656Y-10.1031
X2.5656Y-10.7724
X2.5656Y-11.4417
X2.5656Y-12.111
X2.5803Y-2.8728
X2.5803Y-3.5421
X2.5803Y-4.2114
X2.5803Y-4.8807
X2.5803Y-5.55
X2.5803Y-6.2665
X2.5803Y-6.9358
X2.5803Y-7.6051
X2.5803Y-8.2744
X2.5803Y-8.9437
X2.5803Y-9.6524
X2.5803Y-10.3217
X2.5803Y-10.9909
X2.5803Y-11.6602
X2.5803Y-12.3295
X2.6419Y-2.6543
X2.6419Y-3.3236
X2.6419Y-3.9929
X2.6419Y-4.6622
X2.6419Y-5.3315
X2.6419Y-6.048
X2.6419Y-6.7173
X2.6419Y-7.3866
X2.6419Y-8.0559
X2.6419Y-8.7252
X2.6419Y-9.4339
X2.6419Y-10.1031
X2.6419Y-10.7724
X2.6419Y-11.4417
X2.6419Y-12.111
X2.6705Y-2.8728
X2.6705Y-3.5421
X2.6705Y-4.2114
X2.6705Y-4.8807
X2.6705Y-5.55
X2.6705Y-6.2665
X2.6705Y-6.9358
X2.6705Y-7.6051
X2.6705Y-8.2744
X2.6705Y-8.9437
X2.6705Y-9.6524
X2.6705Y-10.3217
X2.6705Y-10.9909
X2.6705Y-11.6602
X2.6705Y-12.3295
X2.7181Y-2.6543
X2.7181Y-3.3236
X2.7181Y-3.9929
X2.7181Y-4.6622
X2.7181Y-5.3315
X2.7181Y-6.048
X2.7181Y-6.7173
X2.7181Y-7.3866
X2.7181Y-8.0559
X2.7181Y-8.7252
X2.7181Y-9.4339
X2.7181Y-10.1031
X2.7181Y-10.7724
X2.7181Y-11.4417
X2.7181Y-12.111
X2.7606Y-2.8728
X2.7606Y-3.5421
X2.7606Y-4.2114
X2.7606Y-4.8807
X2.7606Y-5.55
X2.7606Y-6.2665
X2.7606Y-6.9358
X2.7606Y-7.6051
X2.7606Y-8.2744
X2.7606Y-8.9437
X2.7606Y-9.6524
X2.7606Y-10.3217
X2.7606Y-10.9909
X2.7606Y-11.6602
X2.7606Y-12.3295
X2.7944Y-2.6543
X2.7944Y-3.3236
X2.7944Y-3.9929
X2.7944Y-4.6622
X2.7944Y-5.3315
X2.7944Y-6.048
X2.7944Y-6.7173
X2.7944Y-7.3866
X2.7944Y-8.0559
X2.7944Y-8.7252
X2.7944Y-9.4339
X2.7944Y-10.1031
X2.7944Y-10.7724
X2.7944Y-11.4417
X2.7944Y-12.111
X2.8508Y-2.8728
X2.8508Y-3.5421
X2.8508Y-4.2114
X2.8508Y-4.8807
X2.8508Y-5.55
X2.8508Y-6.2665
X2.8508Y-6.9358
X2.8508Y-7.6051
X2.8508Y-8.2744
X2.8508Y-8.9437
X2.8508Y-9.6524
X2.8508Y-10.3217
X2.8508Y-10.9909
X2.8508Y-11.6602
X2.8508Y-12.3295
X2.8706Y-2.6543
X2.8706Y-3.3236
X2.8706Y-3.9929
X2.8706Y-4.6622
X2.8706Y-5.3315
X2.8706Y-6.048
X2.8706Y-6.7173
X2.8706Y-7.3866
X2.8706Y-8.0559
X2.8706Y-8.7252
X2.8706Y-9.4339
X2.8706Y-10.1031
X2.8706Y-10.7724
X2.8706Y-11.4417
X2.8706Y-12.111
X2.9409Y-2.8728
X2.9409Y-3.5421
X2.9409Y-4.2114
X2.9409Y-4.8807
X2.9409Y-5.55
X2.9409Y-6.2665
X2.9409Y-6.9358
X2.9409Y-7.6051
X2.9409Y-8.2744
X2.9409Y-8.9437
X2.9409Y-9.6524
X2.9409Y-10.3217
X2.9409Y-10.9909
X2.9409Y-11.6602
X2.9409Y-12.3295
X2.9469Y-2.6543
X2.9469Y-3.3236
X2.9469Y-3.9929
X2.9469Y-4.6622
X2.9469Y-5.3315
X2.9469Y-6.048
X2.9469Y-6.7173
X2.9469Y-7.3866
X2.9469Y-8.0559
X2.9469Y-8.7252
X2.9469Y-9.4339
X2.9469Y-10.1031
X2.9469Y-10.7724
X2.9469Y-11.4417
X2.9469Y-12.111
X3.3102Y-4.6059
X3.3122Y-5.9917
X3.3134Y-2.6087
X3.3138Y-3.9425
X3.3142Y-7.9957
X3.3142Y-10.7063
X3.3161Y-6.6571
X3.3161Y-8.663
X3.3181Y-5.2713
X3.3181Y-7.3264
X3.3185Y-3.2677
X3.3201Y-9.3795
X3.322Y-10.0449
X3.322Y-11.3795
X3.328Y-12.0449
X3.4441Y-3.2728
X3.4492Y-2.5972
X3.4657Y-6.6413
X3.4677Y-6.0114
X3.4677Y-9.3854
X3.4697Y-8.6787
X3.4717Y-8.0094
X3.4717Y-11.3953
X3.4736Y-7.3382
X3.4736Y-10.7201
X3.4736Y-12.0626
X3.4756Y-5.2831
X3.4764Y-3.9492
X3.4815Y-10.0528
X3.4913Y-4.6059
X4.0317Y-3.4024
X4.0317Y-4.0717
X4.0319Y-10.8512
X4.0321Y-4.7409
X4.0321Y-9.5126
X4.0326Y-6.7961
X4.0326Y-11.5205
X4.0327Y-2.6898
X4.0327Y-2.7331
X4.0327Y-3.3591
X4.0327Y-4.0283
X4.0327Y-4.6976
X4.0327Y-5.3669
X4.0327Y-5.4102
X4.0327Y-6.0835
X4.0327Y-6.1268
X4.0327Y-6.7528
X4.0327Y-7.422
X4.0327Y-7.4654
X4.0327Y-8.0913
X4.0327Y-8.1346
X4.0327Y-8.7606
X4.0327Y-8.8039
X4.0327Y-9.4693
X4.0327Y-10.1386
X4.0327Y-10.1819
X4.0327Y-10.8079
X4.0327Y-11.4772
X4.0327Y-12.1465
X4.0327Y-12.1898
X4.0418Y-2.7834
X4.0418Y-3.4527
X4.0418Y-4.122
X4.0418Y-4.7913
X4.0418Y-5.4606
X4.0418Y-6.1771
X4.0418Y-6.8464
X4.0418Y-7.5157
X4.0418Y-8.185
X4.0418Y-8.8543
X4.0418Y-9.5629
X4.0418Y-10.2322
X4.0418Y-10.9015
X4.0418Y-11.5708
X4.0418Y-12.2401
X4.0425Y-2.8264
X4.0425Y-3.4957
X4.0425Y-4.165
X4.0425Y-4.8343
X4.0425Y-5.5035
X4.0425Y-6.2201
X4.0425Y-6.8894
X4.0425Y-7.5587
X4.0425Y-8.228
X4.0425Y-8.8972
X4.0425Y-9.6059
X4.0425Y-10.2752
X4.0425Y-10.9445
X4.0425Y-11.6138
X4.0425Y-12.2831
X4.7354Y-5.0508
X4.7512Y-6.4287
X4.7551Y-5.728
X4.7728Y-7.7555
X4.7728Y-8.4287
X4.7787Y-11.8126
X4.7843Y-3.0252
X4.7846Y-7.0803
X4.7886Y-9.8067
X4.7906Y-3.7063
X4.7906Y-4.3657
X4.7906Y-11.1472
X4.8063Y-9.0862
X4.8161Y-10.4661
X5.072Y-10.9878
X5.074Y-10.7299
X5.074Y-10.8657
X5.1026Y-10.0428
X5.1203Y-11.089
X5.138Y-11.3736
X5.1951Y-9.8322
X5.2055Y-11.3886
X5.2059Y-11.3008
X5.2768Y-7.7575
X5.2768Y-7.8067
X5.2768Y-8.4169
X5.2787Y-8.4701
X5.2827Y-8.6748
X5.2906Y-7.0724
X5.2906Y-7.1177
X5.2984Y-6.474
X5.3004Y-6.4287
X5.3076Y-9.5481
X5.3417Y-7.537
X5.3417Y-7.5862
X5.3417Y-7.6354
X5.3437Y-7.2831
X5.3437Y-7.3244
X5.3791Y-9.1354
X5.3969Y-5.8441
X5.3988Y-5.7909
X5.4362Y-5.0507
X5.4382Y-5.1021
X5.4559Y-4.3612
X5.4579Y-4.409
X5.4752Y-10.0791
X5.4756Y-3.7063
X5.4756Y-3.7767
X5.4783Y-10.3795
X5.4899Y-3.1046
X5.5516Y-11.2224
X5.578Y-8.9622
X5.6154Y-7.8049
X5.6154Y-8.3927
X5.6163Y-6.8913
X5.6163Y-6.9583
X5.6173Y-7.1203
X5.6193Y-5.9858
X5.6193Y-7.2142
X5.6646Y-3.0749
X5.7035Y-11.0709
X5.7049Y-3.7024
X5.7059Y-3.7673
X5.7226Y-4.3318
X5.7226Y-4.3902
X5.7404Y-5.0422
X5.7404Y-5.1095
X5.7404Y-5.7664
X5.7634Y-3.9417
X5.7634Y-4.0909
X5.7673Y-4.5031
X5.7673Y-4.6406
X5.7673Y-4.7976
X5.7758Y-6.3736
X5.7807Y-5.6906
X5.7984Y-7.0035
X5.7994Y-7.1571
X5.8242Y-7.3679
X5.8417Y-8.2083
X5.8457Y-7.2555
X5.8496Y-7.0724
X5.8654Y-7.4661
X5.8654Y-7.5665
X5.8673Y-7.3697
X5.8673Y-7.4209
X5.8673Y-7.5173
X5.8858Y-7.9575
X5.8863Y-7.8537
X5.8865Y-7.8079
X5.8874Y-7.9071
X5.889Y-7.7142
X5.8897Y-8.0905
X5.8919Y-9.4553
X5.8945Y-8.2071
X5.9047Y-5.8697
X5.9096Y-9.63
X5.9264Y-10.0189
X5.9311Y-9.9378
X5.9319Y-10.8315
X5.9382Y-6.7329
X5.9382Y-8.7535
X5.9402Y-8.663
X5.9421Y-7.2457
X5.9559Y-9.9795
X6.0218Y-7.9651
X6.0228Y-6.978
X6.0228Y-7.4669
X6.0484Y-10.5606
X6.0504Y-7.5165
X6.0504Y-7.0315
X6.0516Y-7.911
X6.0622Y-8.1059
X6.0681Y-9.1748
X6.0772Y-7.8661
X6.0799Y-7.6138
X6.0799Y-7.1157
X6.0957Y-7.9917
X6.0961Y-10.6764
X6.1272Y-8.0724
X6.1311Y-7.5193
X6.1315Y-9.2858
X6.1331Y-9.8677
X6.135Y-9.7811
X6.137Y-6.9307
X6.137Y-6.8815
X6.137Y-7.4661
X6.1376Y-7.8559
X6.139Y-7.0311
X6.139Y-7.5665
X6.139Y-7.8067
X6.1399Y-7.0801
X6.1409Y-6.9799
X6.1409Y-10.1669
X6.1421Y-7.3417
X6.1449Y-10.2299
X6.1744Y-6.7516
X6.1783Y-7.2516
X6.1783Y-8.1669
X6.1797Y-9.1363
X6.1803Y-7.7122
X6.1803Y-9.287
X6.2138Y-9.2575
X6.2382Y-9.5433
X6.2472Y-9.1492
X6.2531Y-9.2929
X6.2557Y-8.1073
X6.2565Y-8.0573
X6.2571Y-7.9071
X6.2571Y-7.9563
X6.2573Y-8.0073
X6.2748Y-8.661
X6.2748Y-8.7535
X6.2748Y-8.8598
X6.2827Y-2.972
X6.3004Y-9.8264
X6.3122Y-10.165
X6.322Y-9.8638
X6.3663Y-10.5186
X6.3673Y-9.8618
X6.4126Y-9.8638
X6.4392Y-2.5911
X6.4461Y-9.4091
X6.4559Y-9.8618
X6.4697Y-10.5724
X6.4717Y-11.0075
X6.4759Y-9.4546
X6.4815Y-9.3126
X6.4874Y-3.098
X6.4902Y-3.4937
X6.4933Y-3.7673
X6.4941Y-3.3169
X6.4992Y-10.4701
X6.5051Y-9.4071
X6.5059Y-3.8984
X6.5098Y-4.087
X6.515Y-10.1256
X6.515Y-10.8539
X6.5256Y-4.474
X6.5256Y-4.6094
X6.5256Y-4.7075
X6.5602Y-10.5567
X6.5622Y-5.3146
X6.5661Y-10.476
X6.5681Y-10.6965
X6.5701Y-9.4168
X6.574Y-9.8421
X6.5845Y-10.2322
X6.6089Y-9.7642
X6.6284Y-9.5596
X6.6301Y-6.2339
X6.6547Y-6.5449
X6.6587Y-9.6138
X6.6685Y-7.4012
X6.6858Y-7.9665
X6.6866Y-8.0957
X6.7298Y-8.2918
X6.7343Y-8.6335
X6.739Y-8.4035
X6.761Y-9.6197
X6.7846Y-8.7496
X6.8142Y-9.8087
X6.8501Y-9.8726
X6.8654Y-9.7516
X6.8949Y-9.8874
X6.9205Y-8.6354
X6.9258Y-8.5665
X6.9264Y-7.9465
X6.9283Y-8.0016
X6.9303Y-3.8382
X6.9362Y-6.663
X6.9431Y-7.3372
X6.9441Y-3.1846
X6.9461Y-4.5124
X6.9492Y-9.4906
X6.9795Y-5.2535
X6.9929Y-9.5797
X6.9933Y-5.8697
X6.9944Y-9.4533
X6.9972Y-10.4543
X7.0189Y-10.348
X7.0348Y-9.6038
X7.036Y-9.4123
X7.0555Y-2.5911
X7.0622Y-10.3283
X7.0736Y-9.5797
X7.0813Y-9.3749
X7.1135Y-9.6031
X7.1266Y-9.3376
X7.1311Y-10.3283
X7.1528Y-9.5797
X7.1685Y-3.9071
X7.1705Y-5.9642
X7.1724Y-6.6335
X7.1744Y-3.2457
X7.1744Y-5.2575
X7.1744Y-7.3067
X7.1764Y-4.5843
X7.2531Y-10.3224
X7.2886Y-9.3087
X7.3978Y-9.3997
X7.6469Y-10.4445
X7.6843Y-11.0094
X7.7102Y-2.8276
X7.7102Y-3.4969
X7.7102Y-4.1661
X7.7102Y-4.8354
X7.7102Y-5.5047
X7.7102Y-6.2134
X7.7102Y-6.8827
X7.7102Y-7.552
X7.7102Y-8.2213
X7.7102Y-8.8906
X7.7109Y-2.8705
X7.7109Y-3.5398
X7.7109Y-4.2091
X7.7109Y-4.8784
X7.7109Y-5.5477
X7.7109Y-6.2564
X7.7109Y-6.9257
X7.7109Y-7.5949
X7.7109Y-8.2642
X7.7109Y-8.9335
X7.7201Y-2.9209
X7.7201Y-2.9642
X7.7201Y-3.6335
X7.7201Y-4.2594
X7.7201Y-4.3028
X7.7201Y-4.9287
X7.7201Y-4.972
X7.7201Y-5.598
X7.7201Y-5.6413
X7.7201Y-6.35
X7.7201Y-7.0193
X7.7201Y-7.6886
X7.7201Y-8.3579
X7.7201Y-9.0272
X7.7202Y-7.6453
X7.7205Y-3.5902
X7.7205Y-6.3067
X7.7205Y-6.976
X7.7205Y-8.3146
X7.7205Y-8.9839
X8.1646Y-10.5803
X8.1646Y-10.8336
X8.1685Y-10.537
X8.1793Y-10.6778
X8.1862Y-11.7732
X8.1894Y-10.7665
X8.1894Y-10.9287
X8.2413Y-11.7732
X8.2591Y-11.0331
X8.3634Y-10.7752
X8.4138Y-10.6756
X8.4205Y-11.5134
X8.4224Y-8.4445
X8.4264Y-7.7772
X8.4283Y-7.1079
X8.4303Y-9.1197
X8.4323Y-3.0587
X8.4323Y-3.722
X8.4323Y-4.3776
X8.4323Y-6.4425
X8.4343Y-5.0665
X8.4343Y-5.7319
X8.5543Y-10.6866
X8.5543Y-10.7831
X8.5681Y-10.5488
X8.6429Y-10.5528
X8.7354Y-11.602
X8.7591Y-10.9189
X8.8059Y-2.9996
X8.8059Y-3.6689
X8.8059Y-4.3382
X8.8059Y-5.0075
X8.8059Y-5.6768
X8.8059Y-6.3854
X8.8059Y-7.0547
X8.8059Y-7.724
X8.8059Y-8.3933
X8.8059Y-9.0626
X8.8118Y-2.7811
X8.8118Y-3.4504
X8.8118Y-4.1197
X8.8118Y-4.789
X8.8118Y-5.4583
X8.8118Y-6.1669
X8.8118Y-6.8362
X8.8118Y-7.5055
X8.8118Y-8.1748
X8.8118Y-8.8441
X8.8822Y-2.9996
X8.8822Y-3.6689
X8.8822Y-4.3382
X8.8822Y-5.0075
X8.8822Y-5.6768
X8.8822Y-6.3854
X8.8822Y-7.0547
X8.8822Y-7.724
X8.8822Y-8.3933
X8.8822Y-9.0626
X8.902Y-2.7811
X8.902Y-3.4504
X8.902Y-4.1197
X8.902Y-4.789
X8.902Y-5.4583
X8.902Y-6.1669
X8.902Y-6.8362
X8.902Y-7.5055
X8.902Y-8.1748
X8.902Y-8.8441
X8.9584Y-2.9996
X8.9584Y-3.6689
X8.9584Y-4.3382
X8.9584Y-5.0075
X8.9584Y-5.6768
X8.9584Y-6.3854
X8.9584Y-7.0547
X8.9584Y-7.724
X8.9584Y-8.3933
X8.9584Y-9.0626
X8.9921Y-2.7811
X8.9921Y-3.4504
X8.9921Y-4.1197
X8.9921Y-4.789
X8.9921Y-5.4583
X8.9921Y-6.1669
X8.9921Y-6.8362
X8.9921Y-7.5055
X8.9921Y-8.1748
X8.9921Y-8.8441
X9.0346Y-2.9996
X9.0346Y-3.6689
X9.0346Y-4.3382
X9.0346Y-5.0075
X9.0346Y-5.6768
X9.0346Y-6.3854
X9.0346Y-7.0547
X9.0346Y-7.724
X9.0346Y-8.3933
X9.0346Y-9.0626
X9.0823Y-2.7811
X9.0823Y-3.4504
X9.0823Y-4.1197
X9.0823Y-4.789
X9.0823Y-5.4583
X9.0823Y-6.1669
X9.0823Y-6.8362
X9.0823Y-7.5055
X9.0823Y-8.1748
X9.0823Y-8.8441
X9.1109Y-2.9996
X9.1109Y-3.6689
X9.1109Y-4.3382
X9.1109Y-5.0075
X9.1109Y-5.6768
X9.1109Y-6.3854
X9.1109Y-7.0547
X9.1109Y-7.724
X9.1109Y-8.3933
X9.1109Y-9.0626
X9.1724Y-2.7811
X9.1724Y-3.4504
X9.1724Y-4.1197
X9.1724Y-4.789
X9.1724Y-5.4583
X9.1724Y-6.1669
X9.1724Y-6.8362
X9.1724Y-7.5055
X9.1724Y-8.1748
X9.1724Y-8.8441
X9.1871Y-2.9996
X9.1871Y-3.6689
X9.1871Y-4.3382
X9.1871Y-5.0075
X9.1871Y-5.6768
X9.1871Y-6.3854
X9.1871Y-7.0547
X9.1871Y-7.724
X9.1871Y-8.3933
X9.1871Y-9.0626
X9.2626Y-2.7811
X9.2626Y-3.4504
X9.2626Y-4.1197
X9.2626Y-4.789
X9.2626Y-5.4583
X9.2626Y-6.1669
X9.2626Y-6.8362
X9.2626Y-7.5055
X9.2626Y-8.1748
X9.2626Y-8.8441
X9.2634Y-2.9996
X9.2634Y-3.6689
X9.2634Y-4.3382
X9.2634Y-5.0075
X9.2634Y-5.6768
X9.2634Y-6.3854
X9.2634Y-7.0547
X9.2634Y-7.724
X9.2634Y-8.3933
X9.2634Y-9.0626
T3
X5.3083Y-8.5567
X5.322Y-7.8854
X5.325Y-11.6423
X5.328Y-11.2417
X5.3299Y-10.6039
X5.3476Y-5.9878
X5.3614Y-7.2142
X5.3831Y-6.5528
X5.4067Y-9.2594
X5.4343Y-5.1689
X5.4421Y-4.5213
X5.4461Y-3.2142
X5.452Y-3.8835
X5.6094Y-7.8854
X5.6272Y-3.8835
X5.6272Y-5.1689
X5.6291Y-3.2142
X5.6331Y-6.5528
X5.6331Y-8.5567
X5.635Y-4.5213
X5.9638Y-10.163
X6.3083Y-8.2043
X6.3319Y-5.2594
X6.3339Y-4.974
X6.3339Y-5.415
X6.3417Y-4.4091
X6.3417Y-5.1591
X6.3437Y-5.6118
X6.3437Y-5.6807
X6.3437Y-5.7752
X6.3457Y-8.5094
X6.3496Y-3.6846
X6.3496Y-6.4484
X6.3516Y-8.0823
X6.3654Y-7.224
X6.3669Y-2.9913
X6.4224Y-9.2673
X6.4972Y-3.6827
X6.511Y-3.0055
X6.5217Y-4.411
X6.563Y-5.1591
X6.6035Y-5.7772
X6.635Y-5.9031
X6.635Y-5.9799
X6.6449Y-6.4484
X6.6724Y-7.224
X6.698Y-7.8776
X6.7315Y-8.5114
X6.7731Y-9.4971
X6.8929Y-11.6551
X6.9205Y-7.8795
X6.9756Y-8.5862
X7.0091Y-7.8795
X7.0996Y-8.5862
X7.4047Y-9.2614
X7.4736Y-7.9091
X7.637Y-7.911
X7.7984Y-7.9091
T4
X7.1287Y-12.1906
X7.2287Y-12.1906
X7.3287Y-12.1906
X7.5287Y-12.1906
X7.6287Y-12.1906
T5
X6.6555Y-11.7583
X6.7055Y-11.7583
X6.7555Y-11.7583
T6
X5.2728Y-9.9051
X5.3654Y-9.3874
X5.5858Y-8.8913
X8.7295Y-10.5508
X8.826Y-10.2594
X8.8958Y-10.847
X9.0091Y-10.9839
X8.4319Y-10.3772
X8.7319Y-10.3772
X6.4835Y-11.648
X6.4835Y-11.748
X6.4835Y-11.848
T7
X9.0173Y-11.2547
X9.0173Y-11.3547
X9.0173Y-11.4547
X9.0173Y-11.5547
X9.1173Y-11.3047
X9.1173Y-11.4047
X9.1173Y-11.5047
X9.1173Y-11.6047
X9.0173Y-10.4791
X9.0173Y-10.5791
X9.0173Y-10.6791
X9.0173Y-10.7791
X9.1173Y-10.5291
X9.1173Y-10.6291
X9.1173Y-10.7291
X9.1173Y-10.8291
T8
X6.9957Y-6.7724
X6.9957Y-6.9693
X4.7571Y-8.1413
X4.7571Y-8.3382
X4.7571Y-11.5272
X4.7571Y-11.724
X3.0472Y-4.8409
X3.2441Y-4.8409
X3.0472Y-12.2898
X3.2441Y-12.2898
X8.5087Y-8.8839
X8.7055Y-8.8839
X6.9957Y-2.7173
X6.9957Y-2.9142
X3.0472Y-10.9512
X3.2441Y-10.9512
X4.7571Y-4.0783
X4.7571Y-4.2752
X8.5087Y-6.2067
X8.7055Y-6.2067
X8.8693Y-12.0331
X9.0661Y-12.0331
X8.5087Y-2.8209
X8.7055Y-2.8209
X3.0472Y-6.2268
X3.2441Y-6.2268
X6.3024Y-11.161
X6.3024Y-11.261
X6.3024Y-11.361
X6.3024Y-11.461
X4.7571Y-4.7476
X4.7571Y-4.9445
X6.9957Y-4.0559
X6.9957Y-4.2528
X8.5087Y-4.8287
X8.7055Y-4.8287
X3.0472Y-8.9039
X3.2441Y-8.9039
X3.0472Y-10.2819
X3.2441Y-10.2819
X3.0472Y-4.1717
X3.2441Y-4.1717
X6.9957Y-8.7803
X6.9957Y-8.9772
X4.7571Y-6.1335
X4.7571Y-6.3303
X3.0472Y-5.5102
X3.2441Y-5.5102
X3.0472Y-8.2346
X3.2441Y-8.2346
X3.0472Y-3.5024
X3.2441Y-3.5024
X6.9957Y-5.3945
X6.9957Y-5.5913
X7.8917Y-12.0067
X8.0886Y-12.0067
X8.5087Y-6.876
X8.7055Y-6.876
X8.5087Y-7.5453
X8.7055Y-7.5453
X3.0472Y-9.6126
X3.2441Y-9.6126
X8.5087Y-8.2146
X8.7055Y-8.2146
X4.7571Y-8.8106
X4.7571Y-9.0075
X4.7571Y-3.4091
X4.7571Y-3.6059
X8.5087Y-5.498
X8.7055Y-5.498
X8.5087Y-3.4902
X8.7055Y-3.4902
X4.7571Y-10.8579
X4.7571Y-11.0547
X4.7571Y-7.472
X4.7571Y-7.6689
X4.7571Y-9.5193
X4.7571Y-9.7161
X3.0472Y-7.5654
X3.2441Y-7.5654
X4.7571Y-6.8028
X4.7571Y-6.9996
X3.0472Y-11.6205
X3.2441Y-11.6205
X6.9957Y-7.4417
X6.9957Y-7.6386
X6.9957Y-4.7252
X6.9957Y-4.922
X4.7571Y-5.4169
X4.7571Y-5.6138
X7.0953Y-11.752
X7.2921Y-11.752
X6.9957Y-6.1031
X6.9957Y-6.3
X3.0472Y-6.8961
X3.2441Y-6.8961
X4.7571Y-10.1886
X4.7571Y-10.3854
X8.5087Y-4.1594
X8.7055Y-4.1594
X4.7571Y-12.1965
X4.7571Y-12.3933
X4.7571Y-2.7398
X4.7571Y-2.9366
X6.9957Y-3.3866
X6.9957Y-3.5835
X3.0472Y-2.8331
X3.2441Y-2.8331
X7.5524Y-9.5799
X7.5524Y-9.6799
X7.5524Y-9.7799
X7.5524Y-9.8799
X7.5524Y-9.9799
X6.9957Y-8.111
X6.9957Y-8.3079
T9
X6.513Y-12.0874
X6.613Y-12.0874
X6.713Y-12.0874
T10
X7.0925Y-11.3394
X7.2894Y-11.3394
T11
X2.3441Y-10.8969
X2.3441Y-11.0969
X6.3752Y-2.2673
X6.5752Y-2.2673
X9.4087Y-8.7382
X9.4087Y-8.9382
X2.3441Y-10.2276
X2.3441Y-10.4276
X4.9047Y-2.2673
X5.1047Y-2.2673
X9.4087Y-4.6831
X9.4087Y-4.8831
X5.3949Y-2.2673
X5.5949Y-2.2673
X9.4087Y-4.0138
X9.4087Y-4.2138
X2.3441Y-5.4559
X2.3441Y-5.6559
X2.3441Y-7.511
X2.3441Y-7.711
X2.3441Y-8.8496
X2.3441Y-9.0496
X9.4087Y-5.3524
X9.4087Y-5.5524
X2.3441Y-4.7866
X2.3441Y-4.9866
X2.3441Y-6.8417
X2.3441Y-7.0417
X9.4087Y-2.6752
X9.4087Y-2.8752
X2.3441Y-3.448
X2.3441Y-3.648
X2.3441Y-12.2354
X2.3441Y-12.4354
X6.8654Y-2.2673
X7.0654Y-2.2673
X9.4087Y-6.061
X9.4087Y-6.261
X2.3441Y-2.7787
X2.3441Y-2.9787
X9.4087Y-7.3996
X9.4087Y-7.5996
X2.3441Y-6.1724
X2.3441Y-6.3724
X2.3441Y-9.5583
X2.3441Y-9.7583
X5.885Y-2.2673
X6.085Y-2.2673
X9.4087Y-3.3445
X9.4087Y-3.5445
X9.4126Y-9.9138
X9.4126Y-10.1138
X2.3441Y-4.1173
X2.3441Y-4.3173
X2.3441Y-8.1803
X2.3441Y-8.3803
X2.3441Y-11.5661
X2.3441Y-11.7661
X9.4087Y-8.0689
X9.4087Y-8.2689
X9.4087Y-6.7303
X9.4087Y-6.9303
T12
X9.4874Y-11.1238
X9.4874Y-11.7356
X9.4874Y-10.3482
X9.4874Y-10.96
T13
X8.152Y-9.7484
X6.0189Y-3.4465
X3.1496Y-12.8224
X8.9299Y-2.2402
X3.1496Y-2.2402
X8.9299Y-12.8224
T14
X9.3673Y-11.2047
X9.3673Y-11.6547
X9.3673Y-10.4291
X9.3673Y-10.8791
T0
M30
